<?xml version="1.0" encoding="UTF-8"?>
<svg width="392px" height="110px" viewBox="0 0 392 110" version="1.1" xmlns="http://www.w3.org/2000/svg" xmlns:xlink="http://www.w3.org/1999/xlink">
    <!-- Generator: Sketch 41.2 (35397) - http://www.bohemiancoding.com/sketch -->
    <title>Mondialfrutta_logo</title>
    <desc>Created with Sketch.</desc>
    <defs>
        <linearGradient x1="0%" y1="50%" x2="100%" y2="50%" id="linearGradient-1">
            <stop stop-color="#FDB913" offset="0%"></stop>
            <stop stop-color="#EF4123" offset="100%"></stop>
        </linearGradient>
    </defs>
    <g id="Page-1" stroke="none" stroke-width="1" fill="none" fill-rule="evenodd">
        <g id="Mondialfrutta_logo">
            <path d="M37.273,33.337 C35.205,33.374 33.178,33.576 31.203,33.932 L31.203,33.932 C20.724,35.824 11.729,42.029 6.126,50.638 L6.126,50.638 C5.202,52.058 4.37,53.542 3.64,55.085 L3.64,55.085 C1.307,60.004 0,65.499 0,71.294 L0,71.294 C0,77.09 1.307,82.585 3.64,87.505 L3.64,87.505 C4.37,89.045 5.202,90.53 6.126,91.95 L6.126,91.95 C11.74,100.575 20.762,106.79 31.266,108.668 L31.266,108.668 C33.2,109.013 35.185,109.21 37.207,109.25 L37.207,109.25 C37.459,109.255 37.712,109.26 37.965,109.26 L37.965,109.26 C38.213,109.26 38.46,109.255 38.707,109.25 L38.707,109.25 C40.73,109.212 42.715,109.016 44.651,108.671 L44.651,108.671 C55.162,106.795 64.187,100.579 69.805,91.95 L69.805,91.95 C70.728,90.53 71.561,89.045 72.291,87.505 L72.291,87.505 C74.624,82.585 75.931,77.09 75.931,71.294 L75.931,71.294 C75.931,65.499 74.624,60.004 72.291,55.085 L72.291,55.085 C71.561,53.542 70.728,52.058 69.805,50.638 L69.805,50.638 C64.199,42.027 55.198,35.817 44.715,33.929 L44.715,33.929 C42.738,33.574 40.709,33.374 38.641,33.336 L38.641,33.336 C38.416,33.334 38.191,33.328 37.965,33.328 L37.965,33.328 C37.733,33.328 37.503,33.334 37.273,33.337 M31.358,38.428 C27.881,41.977 24.964,46.098 22.75,50.638 L22.75,50.638 L11.584,50.638 C16.426,44.466 23.386,40.031 31.358,38.428 M35.743,40.355 L35.743,50.638 L27.756,50.638 C29.885,46.794 32.586,43.324 35.743,40.355 M25.623,55.085 L35.743,55.085 L35.743,69.072 L22.5,69.072 C22.756,64.137 23.844,59.426 25.623,55.085 M8.634,55.085 L20.858,55.085 C19.254,59.474 18.279,64.173 18.05,69.072 L18.05,69.072 L4.521,69.072 C4.854,64.026 6.305,59.279 8.634,55.085 M22.498,73.516 L35.743,73.516 L35.743,87.505 L25.606,87.505 C23.832,83.161 22.746,78.45 22.498,73.516 M4.52,73.516 L18.048,73.516 C18.274,78.413 19.241,83.114 20.84,87.505 L20.84,87.505 L8.634,87.505 C6.305,83.308 4.854,78.564 4.52,73.516 M27.732,91.95 L35.743,91.95 L35.743,102.28 C32.575,99.3 29.863,95.814 27.732,91.95 M11.584,91.95 L22.728,91.95 C24.934,96.484 27.838,100.601 31.303,104.148 L31.303,104.148 C23.352,102.54 16.414,98.109 11.584,91.95" id="Fill-1" fill="url(#linearGradient-1)"></path>
            <path d="M33.9443,24.0119 C28.8633,23.4169 24.4243,21.3479 21.1063,18.0289 C17.8043,14.7289 15.7373,10.2869 15.1293,5.1829 L15.0693,4.7009 L15.5553,4.7589 C20.6373,5.3539 25.0783,7.4229 28.3953,10.7419 C31.6963,14.0399 33.7623,18.4829 34.3713,23.5879 L34.4303,24.0709 L33.9443,24.0119 Z M65.5103,0.0559 L65.3803,0.0489 C64.7953,0.0179 64.1963,0.0009 63.5983,0.0009 C55.8843,0.0009 49.2113,2.5959 44.3013,7.5049 C41.5973,10.2099 39.5883,13.4709 38.3273,17.1969 L37.9673,18.2739 L37.6013,17.1979 C36.3423,13.4689 34.3323,10.2079 31.6303,7.5049 C26.7193,2.5959 20.0473,-0.0001 12.3343,-0.0001 C11.7153,-0.0001 11.1333,0.0159 10.5523,0.0489 L10.4193,0.0559 L10.4133,0.1849 C9.9743,8.5329 12.6243,16.0189 17.8713,21.2649 C22.7813,26.1739 29.4543,28.7699 37.1693,28.7699 C37.2903,28.7699 37.4093,28.7669 37.5283,28.7619 L37.8463,28.7509 C38.1743,28.7589 38.4693,28.7629 38.7613,28.7629 C46.4803,28.7629 53.1533,26.1699 58.0593,21.2649 C63.3063,16.0139 65.9553,8.5279 65.5163,0.1849 L65.5103,0.0559 Z" id="Fill-3" fill="#72BF44"></path>
            <polygon id="Fill-34" fill="#DC3E2A" points="133.8604 55.2522 133.8604 87.8682 130.0694 87.8682 130.0694 64.8272 119.8124 78.7772 118.4514 78.7772 108.1464 64.7792 108.1464 87.8682 104.3554 87.8682 104.3554 55.2522 105.7164 55.2522 119.0844 73.8182 132.5474 55.2522"></polygon>
            <path d="M159.3535,67.2341 C161.7685,69.6131 162.9755,72.5391 162.9755,76.0051 C162.9755,79.4431 161.7685,82.3581 159.3535,84.7571 C156.9405,87.1541 153.9985,88.3541 150.5315,88.3541 C147.0975,88.3211 144.1815,87.1201 141.7835,84.7571 C139.3855,82.3901 138.1855,79.4731 138.1855,76.0051 C138.1855,72.5391 139.3855,69.6131 141.7835,67.2341 C144.1815,64.8511 147.1145,63.6611 150.5815,63.6611 C154.0155,63.6611 156.9405,64.8511 159.3535,67.2341 M144.4315,69.6881 C142.7945,71.4041 141.9945,73.5291 142.0255,76.0551 C142.0255,78.5831 142.8365,80.6911 144.4575,82.3731 C146.0765,84.0591 148.1015,84.9011 150.5315,84.9011 C152.9625,84.9011 155.0035,84.0521 156.6575,82.3501 C158.3105,80.6491 159.1345,78.5511 159.1345,76.0551 C159.1345,73.4941 158.3175,71.3651 156.6795,69.6631 C155.0445,67.9621 153.0115,67.1121 150.5815,67.1121 C148.1195,67.1121 146.0685,67.9721 144.4315,69.6881" id="Fill-36" fill="#DC3E2A"></path>
            <path d="M184.5449,66.2385 C186.0999,67.9545 186.8759,70.2055 186.8759,72.9915 L186.8759,87.8685 L183.1349,87.8685 L183.1349,73.4325 C183.1349,71.5505 182.6079,70.0275 181.5549,68.8615 C180.5009,67.6945 179.0659,67.1125 177.2519,67.1125 C175.4399,67.1125 173.9469,67.7015 172.7789,68.8855 C171.6129,70.0675 171.0309,71.5855 171.0309,73.4325 L171.0309,87.8685 L167.2889,87.8685 L167.2889,64.1955 L170.7869,64.1955 L170.7869,66.7705 C172.5389,64.6975 174.9689,63.6605 178.0799,63.6605 C180.8339,63.6605 182.9879,64.5195 184.5449,66.2385" id="Fill-38" fill="#DC3E2A"></path>
            <path d="M215.4063,50.7912 L215.4063,87.8662 L211.8593,87.8662 L211.8593,84.0202 C210.9493,85.3992 209.7013,86.4762 208.1133,87.2492 C206.5273,88.0192 204.7933,88.4052 202.9123,88.4052 C199.5433,88.4052 196.7483,87.2072 194.5293,84.8072 C192.3083,82.4102 191.1993,79.4352 191.1993,75.8892 C191.1993,72.3082 192.3083,69.3162 194.5293,66.9192 C196.7483,64.5202 199.5433,63.3212 202.9123,63.3212 C204.6973,63.3212 206.3633,63.6822 207.9223,64.4052 C209.4723,65.1282 210.7223,66.1292 211.6623,67.4102 L211.6623,50.7912 L215.4063,50.7912 Z M209.2793,82.6152 C210.9003,81.0872 211.7133,78.8462 211.7133,75.8892 C211.7133,72.9322 210.9003,70.6812 209.2793,69.1362 C207.6603,67.5902 205.7173,66.8202 203.4493,66.8202 C201.0493,66.8202 199.0493,67.6752 197.4453,69.3812 C195.8403,71.0922 195.0393,73.2422 195.0393,75.8402 C195.0393,78.4672 195.8303,80.6372 197.4223,82.3432 C199.0083,84.0522 201.0153,84.9092 203.4493,84.9092 C205.7173,84.9092 207.6603,84.1432 209.2793,82.6152 L209.2793,82.6152 Z" id="Fill-40" fill="#DC3E2A"></path>
            <path d="M224.668,53.2341 C225.217,53.7691 225.492,54.4081 225.492,55.1561 C225.492,55.9331 225.225,56.5801 224.689,57.1001 C224.156,57.6181 223.498,57.8751 222.721,57.8751 C221.91,57.8751 221.24,57.6181 220.705,57.1001 C220.17,56.5801 219.902,55.9331 219.902,55.1561 C219.902,54.4081 220.17,53.7691 220.705,53.2341 C221.24,52.6991 221.91,52.4321 222.721,52.4321 C223.469,52.4321 224.115,52.6991 224.668,53.2341 L224.668,53.2341 Z M220.826,87.8681 L224.568,87.8681 L224.568,64.1951 L220.826,64.1951 L220.826,87.8681 Z" id="Fill-42" fill="#DC3E2A"></path>
            <path d="M245.9746,66.1389 C247.6586,67.7909 248.5036,70.1739 248.5036,73.2839 L248.5036,87.8679 L245.0016,87.8679 L245.0016,84.8049 C243.2186,87.2019 240.5606,88.3999 237.0316,88.3999 C234.5996,88.3999 232.6176,87.8009 231.0766,86.6029 C229.5386,85.4039 228.7656,83.7849 228.7656,81.7429 C228.7656,79.7329 229.5446,78.1309 231.1016,76.9299 C232.6566,75.7329 234.7106,75.1319 237.2716,75.1319 L244.7596,75.1319 L244.7596,73.0909 C244.7596,71.1449 244.2496,69.6629 243.2286,68.6429 C242.2086,67.6219 240.8046,67.1129 239.0236,67.1129 C236.3656,67.1129 234.0666,68.3759 232.1206,70.9019 L229.6426,68.8609 C231.8146,65.3939 235.0216,63.6609 239.2656,63.6609 C242.0546,63.6609 244.2886,64.4879 245.9746,66.1389 M242.6196,83.3929 C244.0466,82.1299 244.7596,80.5919 244.7596,78.7769 L244.7596,78.1949 L237.7106,78.1949 C234.3086,78.1949 232.6076,79.3119 232.6076,81.5479 C232.6076,82.7469 233.0766,83.6699 234.0156,84.3189 C234.9566,84.9689 236.1226,85.2899 237.5176,85.2899 C239.4946,85.2899 241.1956,84.6589 242.6196,83.3929" id="Fill-44" fill="#DC3E2A"></path>
            <polygon id="Fill-46" fill="#DC3E2A" points="254.229 87.868 257.973 87.868 257.973 50.762 254.229 50.762"></polygon>
            <path d="M273.3555,57.5608 C272.6425,58.1278 272.2855,59.0938 272.2855,60.4538 L272.2855,63.8058 L277.5825,63.8058 L277.5825,69.3488 L272.2855,69.3488 L272.2855,87.8688 L265.7225,87.8688 L265.7225,69.3488 L262.3205,69.3488 L262.3205,63.8058 L265.7225,63.8058 L265.7225,59.8688 C265.7225,56.8548 266.5485,54.5968 268.2015,53.0878 C269.8535,51.5818 272.1235,50.8268 275.0075,50.8268 C276.2735,50.8268 277.4685,51.0078 278.6015,51.3648 L278.6015,56.8548 C277.8925,56.7588 277.2425,56.7088 276.6585,56.7088 C275.1695,56.7088 274.0685,56.9938 273.3555,57.5608" id="Fill-48" fill="#DC3E2A"></path>
            <path d="M296.6582,63.8059 L296.6582,69.5919 L294.9062,69.5919 C292.9282,69.5919 291.3572,70.1169 290.1892,71.1719 C289.0232,72.2239 288.4392,73.7869 288.4392,75.8619 L288.4392,87.8689 L281.8812,87.8689 L281.8812,63.8059 L287.9042,63.8059 L287.9042,66.7209 C289.5562,64.5839 291.7622,63.5139 294.5132,63.5139 C295.3242,63.5139 296.0372,63.6109 296.6582,63.8059" id="Fill-49" fill="#DC3E2A"></path>
            <path d="M322.9844,77.2717 C322.9844,80.6097 321.9394,83.3067 319.8494,85.3637 C317.7574,87.4227 315.1274,88.4497 311.9514,88.4497 C308.7134,88.4497 306.0454,87.4297 303.9554,85.3867 C301.8654,83.3457 300.8204,80.6397 300.8204,77.2717 L300.8204,63.8057 L307.3804,63.8057 L307.3804,77.8067 C307.3804,79.2007 307.8104,80.3167 308.6684,81.1597 C309.5274,82.0017 310.6214,82.4217 311.9514,82.4217 C313.2144,82.4217 314.2734,82.0017 315.1344,81.1597 C315.9944,80.3167 316.4214,79.2007 316.4214,77.8067 L316.4214,63.8057 L322.9844,63.8057 L322.9844,77.2717 Z" id="Fill-50" fill="#DC3E2A"></path>
            <path d="M345.2852,82.3806 L345.2852,87.8686 C343.7302,88.2546 342.2242,88.4496 340.7652,88.4496 C337.7212,88.4496 335.3552,87.6976 333.6682,86.1926 C331.9842,84.6886 331.1422,82.4296 331.1422,79.4206 L331.1422,69.3686 L327.3472,69.3686 L327.3472,63.8366 L331.1422,63.8366 L331.1422,55.3466 L337.7012,55.3466 L337.7012,63.8366 L344.5082,63.8366 L344.5082,69.3686 L337.7012,69.3686 L337.7012,78.8366 C337.7012,80.1956 338.0582,81.1596 338.7752,81.7266 C339.4882,82.2936 340.6212,82.5766 342.1762,82.5766 C342.5642,82.5766 343.6012,82.5116 345.2852,82.3806" id="Fill-51" fill="#DC3E2A"></path>
            <path d="M366.3828,82.3728 L366.3828,87.8688 C364.8278,88.2548 363.3218,88.4498 361.8628,88.4498 C358.8168,88.4498 356.4528,87.6978 354.7658,86.1918 C353.0818,84.6838 352.2398,82.4218 352.2398,79.4108 L352.2398,69.3488 L348.4468,69.3488 L348.4468,63.8058 L352.2398,63.8058 L352.2398,55.3098 L358.8008,55.3098 L358.8008,63.8058 L365.6078,63.8058 L365.6078,69.3488 L358.8008,69.3488 L358.8008,78.8268 C358.8008,80.1858 359.1598,81.1488 359.8728,81.7188 C360.5858,82.2868 361.7168,82.5708 363.2738,82.5708 C363.6618,82.5708 364.6988,82.5038 366.3828,82.3728" id="Fill-52" fill="#DC3E2A"></path>
            <path d="M388.7949,65.9211 C390.6579,67.6871 391.5919,70.2381 391.5919,73.5761 L391.5919,87.8681 L385.5629,87.8681 L385.5629,85.5321 C383.7149,87.4791 381.2699,88.4501 378.2229,88.4501 C375.6619,88.4501 373.6369,87.7791 372.1489,86.4341 C370.6579,85.0891 369.9119,83.3631 369.9119,81.2561 C369.9119,79.0871 370.7289,77.3751 372.3649,76.1271 C374.0039,74.8811 376.2149,74.2551 378.9999,74.2551 L385.0289,74.2551 L385.0289,73.1871 C385.0289,71.8571 384.6469,70.8221 383.8869,70.0771 C383.1229,69.3321 382.0159,68.9601 380.5569,68.9601 C378.4179,68.9601 376.2949,70.0621 374.1899,72.2661 L370.7849,68.2301 C373.5739,64.9231 377.0719,63.2711 381.2869,63.2711 C384.4299,63.2711 386.9299,64.1531 388.7949,65.9211 M383.5699,82.3011 C384.5429,81.4091 385.0289,80.2681 385.0289,78.8761 L385.0289,78.5831 L379.8749,78.5831 C377.6389,78.5831 376.5219,79.3941 376.5219,81.0131 C376.5219,81.8221 376.8379,82.4641 377.4709,82.9351 C378.1019,83.4031 378.9359,83.6381 379.9749,83.6381 C381.3989,83.6381 382.5979,83.1921 383.5699,82.3011" id="Fill-53" fill="#DC3E2A"></path>
        </g>
    </g>
</svg>